<svg xmlns="http://www.w3.org/2000/svg" xmlns:xlink="http://www.w3.org/1999/xlink" version="1.1" x="0px" y="0px" viewBox="0 0 100 125" enable-background="new 0 0 100 100" xml:space="preserve"><path fill="#FFF" d="M77.1,12.7H22.9c-4,0-7.3,3.2-7.3,7v54.5c0,3.9,3.3,7,7.3,7h54.3c4,0,7.3-3.2,7.3-7V19.8  C84.5,15.9,81.2,12.7,77.1,12.7z M53.1,47.8c-0.1,1.5-0.4,2.9-0.9,4.3l-1.5-0.6l-0.3,0.8l1.5,0.6c0.1-0.3,0.2-0.5,0.3-0.8  c-0.6,1.7-1.6,3.2-2.8,4.5L47,54.1l-1.3,1.3l2.5,2.5c-1.2,1-2.6,1.9-4.1,2.5c0.3-0.1,0.6-0.2,0.8-0.3l-0.6-1.5l-0.8,0.3l0.6,1.5  c-1.4,0.5-2.8,0.8-4.4,0.9v-3.6h-1.8v3.5c-1.3-0.1-2.6-0.4-3.8-0.8l0.6-1.5l-0.8-0.3L33.2,60c0.2,0.1,0.5,0.2,0.8,0.3  c-1.7-0.6-3.2-1.6-4.5-2.8L32,55l-1.3-1.3l-2.5,2.5c-2-2.3-3.2-5.2-3.4-8.5h3.6V46H25c0.1-1.3,0.4-2.6,0.8-3.8l1.5,0.6l0.3-0.8  l-1.5-0.6c-0.1,0.3-0.2,0.5-0.3,0.8c0.6-1.5,1.4-2.9,2.5-4.1l2.5,2.5l1.3-1.3l-2.5-2.5c1.3-1.2,2.8-2.1,4.5-2.8  c-0.3,0.1-0.6,0.2-0.8,0.3l0.6,1.5l0.8-0.3L34,33.9c1.2-0.5,2.5-0.7,3.9-0.9v3.5h1.8V33c1.5,0.1,2.9,0.4,4.3,0.9l-0.6,1.5l0.8,0.3  l0.6-1.5c-0.2-0.1-0.5-0.2-0.8-0.3c1.5,0.6,2.9,1.4,4.1,2.5l-2.5,2.5l1.3,1.3l2.5-2.5c2.1,2.3,3.4,5.2,3.6,8.4h-3.5v1.8H53.1z   M49.4,37.5c-0.3-0.3-0.6-0.6-1-0.9C48.8,36.9,49.1,37.2,49.4,37.5z M39.5,33c-0.2,0-0.3,0-0.5,0c-0.2,0-0.5,0-0.7,0  c0.2,0,0.4-0.1,0.7-0.1C39.2,32.9,39.4,33,39.5,33z M29.4,36.7c-0.3,0.3-0.6,0.6-0.9,1C28.8,37.4,29.1,37,29.4,36.7z M24.9,46.4  c0,0.2,0,0.5,0,0.7c0,0.2,0,0.4,0,0.6c0-0.2-0.1-0.4-0.1-0.6C24.8,46.8,24.9,46.6,24.9,46.4z M28.6,56.6c0.1,0.2,0.3,0.3,0.5,0.5  c0.1,0.1,0.2,0.2,0.3,0.3C29.1,57.2,28.8,56.9,28.6,56.6z M38.3,61.2c0.2,0,0.5,0,0.7,0c0.2,0,0.3,0,0.5,0c-0.2,0-0.3,0.1-0.5,0.1  C38.8,61.3,38.6,61.2,38.3,61.2z M48.4,57.6c0.3-0.3,0.7-0.6,1-0.9C49.1,57,48.8,57.3,48.4,57.6z M53.1,47.6c0-0.2,0-0.4,0-0.6  c0-0.2,0-0.5,0-0.7c0,0.2,0.1,0.5,0.1,0.7C53.2,47.3,53.2,47.5,53.1,47.6z M77.7,61.7h-9.9c0,0,1.7-11.6,2.8-16.3  c-1.9-0.8-3.2-2.7-3.2-4.9c0-3,2.4-5.4,5.4-5.4c3,0,5.4,2.4,5.4,5.4c0,2.2-1.4,4.2-3.3,5L77.7,61.7z M27.3,51.5l0.3,0.8L26.2,53  c-0.1-0.3-0.2-0.5-0.3-0.8L27.3,51.5z M50.7,42.7l-0.3-0.8l1.5-0.6c0.1,0.3,0.2,0.5,0.3,0.8L50.7,42.7z M43.7,46.9  c0,2.7-2.2,4.9-4.9,4.9c-2.7,0-4.9-2.2-4.9-4.9c0-2.7,2.2-4.9,4.9-4.9C41.5,41.9,43.7,44.1,43.7,46.9z M24.7,85.5v-0.2h10.2v0.2v2.5  c0,1.4-2.3,2.6-5.1,2.6c-2.8,0-5.1-1.2-5.1-2.6L24.7,85.5L24.7,85.5z M65.2,85.5v-0.3h10.2v0.3v2.3c0,1.4-2.3,2.6-5.1,2.6  c-2.8,0-5.1-1.2-5.1-2.6L65.2,85.5L65.2,85.5z"/>
</svg>