<svg xmlns="http://www.w3.org/2000/svg" xmlns:xlink="http://www.w3.org/1999/xlink" version="1.1" x="0px" y="0px" viewBox="0 0 100 125" enable-background="new 0 0 100 100" xml:space="preserve"><path fill="none" stroke="#1A8735" stroke-width="3" stroke-linecap="round" stroke-linejoin="round" stroke-miterlimit="10" d="  M81.005,74.23c-2.629,0-5.022,0.984-6.853,2.596l-44.93-25.081c0.096-0.569,0.158-1.149,0.158-1.745s-0.062-1.176-0.158-1.745  l44.93-25.081c1.83,1.611,4.224,2.596,6.853,2.596c5.735,0,10.386-4.649,10.386-10.385C91.391,9.649,86.74,5,81.005,5  S70.62,9.649,70.62,15.385c0,0.596,0.062,1.176,0.158,1.745L25.847,42.211c-1.829-1.611-4.223-2.596-6.852-2.596  C13.26,39.615,8.61,44.265,8.61,50s4.65,10.385,10.385,10.385c2.629,0,5.023-0.984,6.852-2.596l44.931,25.082  c-0.097,0.568-0.158,1.148-0.158,1.744C70.62,90.351,75.27,95,81.005,95s10.386-4.649,10.386-10.385  C91.391,78.879,86.74,74.23,81.005,74.23z"/></svg>