<svg xmlns="http://www.w3.org/2000/svg" xmlns:xlink="http://www.w3.org/1999/xlink" version="1.1" x="0px" y="0px" viewBox="0 0 100 125" enable-background="new 0 0 100 100" xml:space="preserve"><g><path fill= "#1A8735" d="M86.824,57.513c0.857-1.853,1.315-3.894,1.315-6.002c0-7.863-6.398-14.262-14.26-14.262   c-0.808,0-1.599,0.074-2.37,0.202c0.097-0.8,0.154-1.607,0.154-2.425c0-10.944-8.905-19.849-19.851-19.849   c-10.946,0-19.851,8.904-19.851,19.849c0,3.727,1.024,7.295,2.912,10.374c-2.91,1.479-5.587,3.331-7.988,5.479   c-1.899-1.418-4.247-2.269-6.794-2.269c-6.277,0-11.384,5.105-11.384,11.384c0,1.297,0.217,2.562,0.629,3.753   c-4.083,2.731-7.047,6.971-8.136,11.899C1.067,76.234,1,76.771,1,77.348C1,81.59,4.45,85,8.69,85h22.803c0.004,0,0.007,0,0.011,0   h26.297c0.003,0,0.007,0,0.012,0h32.131C94.937,85,99,80.977,99,75.981c0-0.658-0.08-1.314-0.239-2.046   C97.219,66.963,92.83,61.06,86.824,57.513z M89.943,81H57.812c-2.598,0-4.704-2.244-4.704-4.842c0-0.387,0.059-0.834,0.14-1.197   c1.646-7.449,7.227-13.464,14.45-15.669c-2.271-1.815-3.727-4.629-3.727-7.764c0-5.47,4.435-9.915,9.908-9.915   c5.471,0,9.906,4.431,9.906,9.9c0,3.135-1.455,5.929-3.727,7.744c7.225,2.207,12.802,8.186,14.449,15.637   c0.081,0.363,0.138,0.878,0.138,1.265C94.646,78.757,92.54,81,89.943,81z M5.354,77.525c0-0.277,0.04-0.614,0.099-0.873   c1.167-5.285,5.127-9.562,10.254-11.125c-1.612-1.291-2.645-3.292-2.645-5.517c0-3.881,3.147-7.038,7.03-7.038   s7.031,3.144,7.031,7.024c0,2.224-1.034,4.208-2.645,5.496c5.127,1.564,9.084,5.807,10.255,11.094   c0.056,0.258,0.096,0.663,0.096,0.94c0,1.841-1.495,3.473-3.336,3.473H8.69C6.849,81,5.354,79.367,5.354,77.525z M38.411,81   c0.49-2,0.772-2.277,0.772-3.475c0-0.557-0.065-1.194-0.197-1.801c-1.092-4.937-4.057-9.212-8.141-11.944   c0.415-1.189,0.631-2.47,0.631-3.769c0-2.159-0.616-4.183-1.665-5.903c3.516-3.143,7.707-5.547,12.332-6.96   c-3.552-2.84-5.829-7.22-5.829-12.12c0-8.558,6.938-15.496,15.498-15.496c8.558,0,15.497,6.938,15.497,15.495   c0,1.436-0.2,2.824-0.565,4.144c-4.257,2.471-7.127,7.074-7.127,12.34c0,2.108,0.458,4.149,1.316,6.002   c-6.01,3.547-10.397,9.47-11.937,16.441c-0.164,0.734-0.24,1.546-0.24,2.204c0,1.725,0.492,2.842,1.331,4.842H38.411z"/></g></svg>