<svg xmlns="http://www.w3.org/2000/svg" xmlns:xlink="http://www.w3.org/1999/xlink" version="1.1" x="0px" y="0px" viewBox="0 0 100 125" enable-background="new 0 0 100 100" xml:space="preserve"><rect fill="none" width="100" height="100"/><path fill="#FFF" d="M46.579,52.02c-0.075,0-0.149,0.005-0.224,0.005V16.998c0-6.029-9.082-10.75-20.679-10.75C14.082,6.248,5,10.969,5,16.998  v58.34c0,6.029,9.082,10.751,20.677,10.751c0.358,0,0.704-0.029,1.055-0.039c2.471,4.496,10.303,7.702,19.847,7.702  c11.597,0,20.682-4.721,20.682-10.75V62.765C67.261,56.736,58.176,52.02,46.579,52.02z M64.565,62.765  c0,3.89-7.227,8.054-17.986,8.054c-10.755,0-17.977-4.164-17.977-8.054s7.222-8.053,17.977-8.053  C57.339,54.712,64.565,58.875,64.565,62.765z M64.565,68.15v5.447c0,3.895-7.227,8.058-17.986,8.058  c-10.755,0-17.977-4.163-17.977-8.058V68.15c0.072,0.067,0.164,0.12,0.241,0.192c0.31,0.273,0.644,0.533,1,0.788  c0.142,0.101,0.281,0.202,0.428,0.298c0.43,0.294,0.885,0.567,1.37,0.822c0.067,0.038,0.13,0.082,0.202,0.115  c0.558,0.299,1.156,0.567,1.779,0.822c0.168,0.072,0.346,0.14,0.52,0.207c0.485,0.183,0.985,0.365,1.5,0.528  c0.202,0.059,0.404,0.13,0.61,0.188c0.649,0.192,1.315,0.371,2.007,0.52c0.058,0.02,0.108,0.034,0.164,0.043  c0.748,0.164,1.527,0.294,2.315,0.419c0.226,0.028,0.457,0.053,0.686,0.086c0.603,0.077,1.219,0.14,1.844,0.192  c0.245,0.02,0.485,0.039,0.733,0.058c0.846,0.049,1.705,0.087,2.58,0.087c0.88,0,1.736-0.038,2.582-0.087  c0.25-0.019,0.49-0.038,0.735-0.058c0.625-0.053,1.24-0.115,1.844-0.192c0.229-0.033,0.459-0.058,0.683-0.086  c0.791-0.125,1.57-0.255,2.317-0.419c0.056-0.009,0.108-0.023,0.161-0.043c0.695-0.148,1.361-0.332,2.01-0.52  c0.207-0.058,0.409-0.129,0.611-0.188c0.514-0.163,1.014-0.346,1.5-0.528c0.173-0.067,0.351-0.135,0.521-0.202  c0.622-0.26,1.219-0.528,1.778-0.827c0.072-0.033,0.135-0.077,0.205-0.115c0.482-0.26,0.938-0.533,1.365-0.822  c0.149-0.096,0.288-0.197,0.433-0.298c0.354-0.255,0.683-0.515,0.993-0.784C64.395,68.275,64.491,68.222,64.565,68.15z   M43.485,52.145c0.055-0.048,0.123-0.092,0.175-0.14v0.125C43.603,52.135,43.545,52.14,43.485,52.145z M25.677,8.945  c10.758,0,17.984,4.164,17.984,8.053s-7.226,8.054-17.984,8.054c-10.755,0-17.979-4.164-17.979-8.054S14.921,8.945,25.677,8.945z   M7.697,22.383c0.072,0.065,0.164,0.125,0.24,0.188c0.313,0.274,0.645,0.539,1,0.793c0.142,0.101,0.281,0.2,0.431,0.298  c0.43,0.286,0.885,0.563,1.368,0.822c0.07,0.038,0.13,0.082,0.202,0.118c0.558,0.291,1.159,0.563,1.779,0.82  c0.17,0.072,0.349,0.134,0.524,0.204c0.481,0.185,0.981,0.363,1.498,0.526c0.202,0.063,0.402,0.13,0.608,0.192  c0.649,0.188,1.317,0.366,2.01,0.52c0.053,0.014,0.106,0.029,0.164,0.039c0.748,0.163,1.524,0.298,2.315,0.418  c0.224,0.029,0.454,0.058,0.68,0.086c0.606,0.077,1.221,0.14,1.846,0.192c0.246,0.02,0.486,0.039,0.736,0.058  c0.846,0.053,1.702,0.092,2.58,0.092s1.735-0.039,2.582-0.092c0.248-0.019,0.488-0.038,0.733-0.058  c0.625-0.053,1.24-0.115,1.846-0.192c0.226-0.029,0.457-0.058,0.683-0.086c0.791-0.12,1.567-0.255,2.317-0.418  c0.053-0.01,0.106-0.024,0.161-0.039c0.695-0.154,1.361-0.332,2.01-0.52c0.205-0.063,0.406-0.13,0.608-0.192  c0.517-0.163,1.017-0.341,1.5-0.526c0.173-0.07,0.351-0.132,0.524-0.204c0.62-0.255,1.216-0.529,1.779-0.82  c0.067-0.036,0.135-0.08,0.205-0.118c0.483-0.262,0.935-0.536,1.363-0.82c0.149-0.101,0.291-0.2,0.433-0.303  c0.355-0.252,0.683-0.517,0.993-0.786c0.08-0.067,0.173-0.125,0.248-0.192v5.452c0,3.89-7.226,8.053-17.984,8.053  c-10.755,0-17.979-4.164-17.979-8.053V22.383z M7.697,33.201c3.524,3.236,10.174,5.38,17.979,5.38s14.46-2.144,17.984-5.38v4.034  c0,3.89-7.226,8.053-17.984,8.053c-10.755,0-17.979-4.164-17.979-8.053V33.201z M7.697,42.601  c3.524,3.241,10.174,5.385,17.979,5.385s14.46-2.144,17.984-5.385v4.034c0,3.895-7.226,8.053-17.984,8.053  c-10.755,0-17.979-4.159-17.979-8.053V42.601z M7.697,52.005c3.524,3.235,10.174,5.385,17.979,5.385c1.05,0,2.074-0.053,3.079-0.125  c-1.808,1.602-2.851,3.477-2.851,5.5v1.322c-0.077,0-0.151,0.005-0.228,0.005c-10.755,0-17.979-4.163-17.979-8.053V52.005z   M7.697,61.404c3.524,3.236,10.174,5.385,17.979,5.385c0.079,0,0.151-0.01,0.228-0.01v6.703c-0.077,0-0.149,0.014-0.228,0.014  c-10.755,0-17.979-4.163-17.979-8.053V61.404z M25.677,83.392c-10.755,0-17.979-4.164-17.979-8.054v-4.534  c3.524,3.236,10.174,5.39,17.979,5.39c0.077,0,0.151-0.009,0.228-0.014v6.822c0,0.13,0.029,0.255,0.036,0.385  C25.852,83.387,25.766,83.392,25.677,83.392z M46.579,91.055c-10.755,0-17.977-4.163-17.977-8.053v-4.039  c3.524,3.241,10.174,5.39,17.977,5.39c7.809,0,14.462-2.148,17.986-5.39v4.039C64.565,86.892,57.339,91.055,46.579,91.055z   M95,28.076c0,1.491-1.207,2.697-2.695,2.697H76.441v15.861c0,1.491-1.207,2.697-2.695,2.697c-1.487,0-2.694-1.207-2.694-2.697  V30.773H55.188c-1.487,0-2.694-1.207-2.694-2.697c0-1.485,1.207-2.692,2.694-2.692h15.864V9.52c0-1.491,1.207-2.695,2.694-2.695  c1.488,0,2.695,1.204,2.695,2.695v15.864h15.863C93.793,25.383,95,26.59,95,28.076z"/></svg>