<svg xmlns:dc="http://purl.org/dc/elements/1.1/" xmlns:cc="http://creativecommons.org/ns#" xmlns:rdf="http://www.w3.org/1999/02/22-rdf-syntax-ns#" xmlns:svg="http://www.w3.org/2000/svg" xmlns="http://www.w3.org/2000/svg" xmlns:xlink="http://www.w3.org/1999/xlink" xmlns:sodipodi="http://sodipodi.sourceforge.net/DTD/sodipodi-0.dtd" xmlns:inkscape="http://www.inkscape.org/namespaces/inkscape" version="1.1" x="0px" y="0px" viewBox="0 0 32 40"><defs><clipPath id="c"><use style="" x="0" y="0" width="32" height="32" xlink:href="#SVGID_125_" overflow="visible"/></clipPath><clipPath id="b"><use style="" x="0" y="0" width="32" height="32" xlink:href="#SVGID_131_" overflow="visible"/></clipPath><clipPath id="a"><use style="" x="0" y="0" width="32" height="32" xlink:href="#SVGID_129_" overflow="visible"/></clipPath></defs><g transform="translate(0,-712.09448)"><path d="m -391.1,405.4982 7.8,0 c 0.3,0 0.6,0.3 0.6,0.6 l 0,6.4018 c 0,0.3 -0.3,0.6 -0.6,0.6 l -7.8,0 c -0.3,0 -0.6,-0.3 -0.6,-0.6 l 0,-6.4018 c 0,-0.4 0.3,-0.6 0.6,-0.6 z" transform="translate(402.9,331.09448)" clip-path="url(#c)" style="" fill="none" stroke="#fffff"/><g transform="translate(-353.1,419.39448)"><path d="m -101.5,408.9 5.6,-3.6 c 0.2,-0.1 0.4,-0.1 0.4,0.1 l 2.2,3.4 c 0.1,0.2 0.1,0.4 -0.1,0.4 l -5.6,3.6 c -0.2,0.1 -0.4,0.1 -0.4,-0.1 l -2.2,-3.4 c -0.1,-0.1 -0.1,-0.3 0.1,-0.4 z" transform="translate(474.1,-88.300004)" clip-path="url(#b)" style="" fill="none" stroke="#fffff"/></g><path d="m -158.9,396.5 h 9.6 c 0.1,0 0.2,0.1 0.2,0.2 v 8.1 c 0,0.1 -0.1,0.2 -0.2,0.2 h -9.6 c -0.1,0 -0.2,-0.1 -0.2,-0.2 v -8.1 c 0,-0.1 0.1,-0.2 0.2,-0.2 z" transform="translate(160.69459,330.53946)" clip-path="url(#a)" style="" fill="none" stroke="#ffff"/><path style="text-indent:0;text-transform:none;direction:ltr;block-progression:tb;baseline-shift:baseline;color:#ffff;enable-background:accumulate;" d="m 16.000025,712.09448 c -8.7977299,0 -15.999999895,7.20227 -15.999999895,16 0,0.21158 0.023000005,0.41535 0.031200005,0.625 0.0222,0.56343 0.0453,1.10878 0.125,1.65625 0.0413,0.30229 0.0959,0.59663 0.15625,0.90625 0.28636999,1.46826 0.78899999,2.99534 1.56249999,4.28125 0.0217,0.0407 0.0404,0.0845 0.0625,0.125 2.71829,4.98646 8.0140598,8.40625 14.0624999,8.40625 8.79773,0 16,-7.20227 16,-16 0,-8.79773 -7.20227,-16 -16,-16 z m 0,1 c 8.25227,0 15,6.74773 15,15 0,8.25227 -6.74773,15 -15,15 -5.10113,0 -9.6308499,-2.58171 -12.3437499,-6.5 l 5.75,0 c 0.1383398,0 0.2461598,-0.0425 0.3437498,-0.0937 l 0.8437501,0.125 c 0.0838,0.58585 0.51913,1.11197 1.125,1.28125 l 8.46875,2.375 c 0.78818,0.22023 1.60772,-0.23691 1.875,-1 0.36828,-0.18024 0.67297,-0.48767 0.8125,-0.90625 0.14776,-0.44328 0.0831,-0.93154 -0.125,-1.3125 0.36828,-0.18805 0.67297,-0.48767 0.8125,-0.90625 0.14513,-0.4354 0.0774,-0.90832 -0.125,-1.28125 0.38101,-0.17756 0.70073,-0.4772 0.84375,-0.90625 0.13248,-0.39744 0.10576,-0.83516 -0.0625,-1.1875 0.38101,-0.17756 0.70073,-0.4772 0.84375,-0.90625 0.20557,-0.61673 0.013,-1.27609 -0.4375,-1.6875 l 2.8125,-10.0625 c 0.22939,-0.82098 -0.27277,-1.67687 -1.09375,-1.90625 l -8.46875,-2.375 c -0.82099,-0.22939 -1.67349,0.27694 -1.90625,1.09375 l -2.0625,7.21875 c -0.53457,0.15904 -1.05791,0.35708 -1.53125,0.59375 -0.71429,0.35714 -1.53129,1.08221 -2.21875,1.71875 -0.3749101,0.34714 -0.4350801,0.4355 -0.6562501,0.65625 -0.0341,-0.005 -0.0568,-0.0312 -0.0937,-0.0312 l -8.375,0 c 0.51978,-7.78944 7.05318,-14 14.9687501,-14 z m 1.40625,3.6875 c 0.0719,-0.0101 0.14273,0.01 0.21875,0.0312 l 8.46875,2.375 c 0.30408,0.085 0.45997,0.3834 0.375,0.6875 l -2.75,9.84375 -0.9375,-0.375 -0.0312,0 c -0.11511,-0.0384 -0.22755,-0.0818 -0.34375,-0.0937 0.022,-0.0626 0.0435,-0.12284 0.0625,-0.1875 l 0.0312,-0.0312 c 0.46301,-1.85205 -0.614,-3.83316 -2.5625,-4.40625 -0.32652,-0.0814 -0.66984,-0.10289 -1,-0.0937 -0.51393,-0.26766 -1.03222,-0.47633 -1.53125,-0.59375 l 0,-0.0312 c -0.76049,-0.1521 -1.57948,-0.15666 -2.375,-0.0312 l 1.90625,-6.65625 c 0.0656,-0.22997 0.25311,-0.40706 0.46875,-0.4375 z m 3.125,3.3125 c -0.18485,0.0259 -0.3679,0.0967 -0.53125,0.1875 -0.32671,0.18151 -0.60356,0.51778 -0.6875,0.9375 -0.0764,0.382 0.006,0.76704 0.1875,1.09375 0.18151,0.32671 0.48653,0.60356 0.90625,0.6875 0.382,0.0764 0.76704,-0.006 1.09375,-0.1875 0.29441,-0.16356 0.51464,-0.45355 0.625,-0.8125 l 0.0312,0 c 0.008,-0.0207 -0.007,-0.0416 0,-0.0625 0.002,-0.008 -0.007,-0.0274 0,-0.0312 0.11251,-0.35892 0.11868,-0.75449 -0.0625,-1.0625 -0.19712,-0.33511 -0.54263,-0.58713 -0.9375,-0.71875 l -0.0312,0 -0.0312,0 c -0.191,-0.0382 -0.37765,-0.0572 -0.5625,-0.0312 z m 0.125,1 c 0.0589,-0.009 0.13191,-0.004 0.1875,0 0.20513,0.0684 0.32212,0.16011 0.375,0.25 0.0529,0.0899 0.0779,0.16465 0.0312,0.28125 l -0.0312,0.0312 0,0.0625 c -0.0161,0.0803 -0.0955,0.15026 -0.21875,0.21875 -0.12329,0.0685 -0.28825,0.1174 -0.40625,0.0937 -0.0803,-0.0161 -0.15026,-0.0955 -0.21875,-0.21875 -0.0685,-0.12329 -0.1174,-0.28825 -0.0937,-0.40625 0.0161,-0.0803 0.0955,-0.18151 0.21875,-0.25 0.0524,-0.0291 0.0973,-0.0532 0.15625,-0.0625 z m -4.53125,3.71875 c 0.37081,-0.007 0.72834,0.0294 1.0625,0.0937 0.007,0.002 0.0242,-0.002 0.0312,0 0.72517,0.17669 1.71869,0.72569 2.53125,1.3125 0.41024,0.29627 0.76095,0.58363 1.03125,0.84375 0.2703,0.26012 0.46895,0.53175 0.46875,0.53125 0.16905,0.42263 0.13785,0.69305 0.0625,0.84375 -0.0754,0.1507 -0.23064,0.29193 -0.6875,0.375 0.0422,-0.008 -0.16338,-0.003 -0.40625,-0.125 -0.24287,-0.12157 -0.53868,-0.31758 -0.875,-0.53125 -0.66511,-0.42255 -1.40057,-0.93594 -2.1875,-1.125 -0.0101,-0.003 -0.0212,0.003 -0.0312,0 -0.418,-0.13217 -0.86491,-0.13878 -1.28125,0 l -0.0312,0 c -1.39622,0.53701 -2.89468,1.61137 -3.46875,3.21875 -0.84441,2.43939 -1.57453,5.00709 -1.6875,5.40625 l -0.5625,-0.0937 0,-7.65625 c 0.17422,-0.17549 0.33476,-0.33427 0.75,-0.71875 0.66254,-0.61346 1.48304,-1.28839 1.96875,-1.53125 0.97917,-0.48959 2.20006,-0.822 3.3125,-0.84375 z m 0.28125,3.09375 c 0.15339,-0.0104 0.3308,0.0269 0.4375,0.0625 l 0.0312,0.0312 c 0.50332,0.11615 1.26118,0.57033 1.9375,1 0.33816,0.21484 0.65498,0.40544 0.96875,0.5625 0.31377,0.15706 0.60571,0.32169 1,0.25 0.0754,-0.0137 0.14641,-0.0432 0.21875,-0.0625 -0.64474,0.77003 -1.66756,1.10963 -2.65625,0.875 -0.009,-0.003 -0.0225,0.003 -0.0312,0 -1.26342,-0.38444 -1.98163,-1.53596 -1.90625,-2.71875 z m -15.3437499,0.1875 7.75,0 -0.125,7.5 -5.59375,0 c -0.14275,-0.20042 -0.27948,-0.43504 -0.40625,-0.65625 -0.3436,-0.66252 -0.66331,-1.34769 -0.90625,-2.0625 -0.007,-0.0213 -0.0245,-0.0412 -0.0312,-0.0625 -0.0986,-0.31113 -0.17269,-0.65296 -0.25,-0.96875 -0.0826,-0.33742 -0.15969,-0.66632 -0.21875,-1 -0.17717,-1.00105 -0.23988,-1.95072 -0.21875,-2.75 z m 14.3437499,0.21875 c 0.10604,1.46801 1.10509,2.82503 2.65625,3.28125 l 0.0312,0 c 0.90244,0.22561 1.81546,0.077 2.59375,-0.34375 0.0243,0.084 0.0561,0.17108 0.0937,0.25 -0.38101,0.17756 -0.70073,0.50845 -0.84375,0.9375 -0.1472,0.44161 -0.11246,0.90109 0.0937,1.28125 -0.36828,0.18805 -0.67297,0.51891 -0.8125,0.9375 -0.14513,0.4354 -0.0857,0.87707 0.125,1.25 -0.009,0.004 -0.0223,-0.004 -0.0312,0 -0.35094,0.16711 -0.64017,0.5224 -0.75,0.9375 l -0.0312,0 c -0.007,0.0213 0.006,0.0411 0,0.0625 -0.002,0.009 0.002,0.0226 0,0.0312 -0.21467,0.80997 0.19484,1.66911 1,1.9375 l 1.125,0.4375 c -0.0626,0.003 -0.12234,0.0182 -0.1875,0 l -8.46875,-2.375 c -0.574857,-0.3319 -0.547679,-0.53449 -0.4062,-1.0625 0.18259,-0.62892 0.90253,-3.04479 1.6875,-5.3125 0.33641,-0.94194 1.18419,-1.73184 2.125,-2.25 z m 6.78125,1.90625 c 0.0779,-10e-4 0.15929,0.0323 0.25,0.0625 l 1.28125,0.5 0.0312,0 c 0.36283,0.12094 0.49594,0.41842 0.375,0.78125 -0.12094,0.36283 -0.38717,0.49594 -0.75,0.375 l -1.28125,-0.5 -0.0312,0 c -0.36283,-0.12094 -0.49594,-0.41842 -0.375,-0.78125 0.0907,-0.27212 0.26638,-0.43408 0.5,-0.4375 z m -0.8125,2.125 c 0.0774,-0.006 0.16338,0.006 0.25,0.0312 l 0.0312,0 1.28125,0.5 c 0.36283,0.12094 0.49594,0.41842 0.375,0.78125 -0.11691,0.35073 -0.3732,0.47502 -0.71875,0.375 l -0.0312,0 -1.28125,-0.5 -0.0312,0 c -0.36283,-0.12094 -0.49594,-0.38717 -0.375,-0.75 0.0879,-0.26356 0.26779,-0.41983 0.5,-0.4375 z m -4.15625,0.84375 c -0.28476,-5.5e-4 -0.56747,0.0826 -0.8125,0.21875 -0.32671,0.18151 -0.60356,0.48653 -0.6875,0.90625 -0.0764,0.382 -0.0253,0.76704 0.15625,1.09375 0.18151,0.32671 0.51778,0.60356 0.9375,0.6875 0.382,0.0764 0.76704,-0.006 1.09375,-0.1875 0.32671,-0.18151 0.60356,-0.48653 0.6875,-0.90625 0.15029,-0.75143 -0.29723,-1.46889 -1,-1.75 l -0.0625,-0.0312 -0.0312,0 c -0.0955,-0.0191 -0.18633,-0.0311 -0.28125,-0.0312 z m 0,1.03125 c 0.27659,0.12477 0.45422,0.35392 0.40625,0.59375 -0.0161,0.0803 -0.0955,0.15026 -0.21875,0.21875 -0.12329,0.0685 -0.28825,0.1174 -0.40625,0.0937 -0.0803,-0.0161 -0.18151,-0.0955 -0.25,-0.21875 -0.0685,-0.12329 -0.0861,-0.28825 -0.0625,-0.40625 0.0161,-0.0803 0.0955,-0.15026 0.21875,-0.21875 0.0942,-0.0523 0.20839,-0.0627 0.3125,-0.0625 z m 3.46875,0.3125 c 0.0779,-10e-4 0.15929,0.0323 0.25,0.0625 l 0,-0.0312 1.28125,0.5 0,0.0312 0.0312,0 c 0.36283,0.12094 0.49594,0.38717 0.375,0.75 -0.12094,0.36283 -0.38717,0.52719 -0.75,0.40625 l -1.28125,-0.5 -0.0312,0 c -0.36283,-0.12094 -0.49594,-0.41842 -0.375,-0.78125 0.0907,-0.27212 0.26638,-0.43408 0.5,-0.4375 z m -0.75,2.21875 c 0.0876,-0.006 0.19827,0.008 0.28125,0.0312 l 0.0312,0 1.28125,0.5 c 0.36283,0.12094 0.52719,0.41842 0.40625,0.78125 -0.11701,0.35103 -0.40403,0.47552 -0.75,0.375 l -0.0312,0 -1.28125,-0.5 c -0.36283,-0.12094 -0.52719,-0.41842 -0.40625,-0.78125 l 0.0312,-0.0312 0,-0.0312 c 0.0211,-0.12671 0.0775,-0.214 0.21875,-0.28125 0.0665,-0.0317 0.13111,-0.0568 0.21875,-0.0625 z" fill="#ffff" fill-opacity="1" stroke="none" marker="none" visibility="visible" display="inline" overflow="visible"/></g></svg>