<svg xmlns="http://www.w3.org/2000/svg" xmlns:xlink="http://www.w3.org/1999/xlink" version="1.1" x="0px" y="0px" viewBox="0 0 100 125" enable-background="new 0 0 100 100" xml:space="preserve"><path d="M60.418,35.206c-8.216,0-16.948-2.376-16.948-6.781c0-4.403,8.732-6.779,16.948-6.779c8.218,0,16.952,2.375,16.952,6.779  C77.37,32.829,68.636,35.206,60.418,35.206z M60.418,23.905c-8.967,0-14.688,2.677-14.688,4.519c0,1.843,5.722,4.521,14.688,4.521  c8.969,0,14.692-2.678,14.692-4.521C75.11,26.582,69.387,23.905,60.418,23.905z"/><path d="M60.418,43.114c-8.216,0-16.948-2.375-16.948-6.779v-6.78c0-0.624,0.506-1.13,1.13-1.13s1.13,0.506,1.13,1.13v6.78  c0,1.842,5.722,4.519,14.688,4.519c8.969,0,14.692-2.677,14.692-4.519v-6.78c0-0.624,0.506-1.13,1.13-1.13s1.13,0.506,1.13,1.13  v6.78C77.37,40.739,68.636,43.114,60.418,43.114z"/><path d="M60.418,51.026c-2.634,0-5.154-0.219-7.491-0.652c-0.613-0.114-1.019-0.704-0.905-1.317  c0.113-0.613,0.706-1.016,1.317-0.905c2.171,0.402,4.618,0.615,7.079,0.615c8.969,0,14.692-2.677,14.692-4.52v-6.781  c0-0.624,0.506-1.13,1.13-1.13s1.13,0.506,1.13,1.13v6.781C77.37,48.65,68.636,51.026,60.418,51.026z"/><path d="M44.6,43.42c-0.624,0-1.13-0.506-1.13-1.13v-4.824c0-0.624,0.506-1.13,1.13-1.13s1.13,0.506,1.13,1.13v4.824  C45.729,42.914,45.224,43.42,44.6,43.42z"/><path d="M60.418,58.935c-2.44,0-4.774-0.187-6.938-0.554c-0.615-0.104-1.029-0.688-0.925-1.304c0.104-0.614,0.678-1.029,1.304-0.925  c2.038,0.347,4.244,0.522,6.559,0.522c8.969,0,14.692-2.675,14.692-4.517v-6.783c0-0.624,0.506-1.13,1.13-1.13s1.13,0.506,1.13,1.13  v6.783C77.37,56.56,68.636,58.935,60.418,58.935z"/><path d="M60.418,66.848c-2.444,0-4.808-0.192-7.026-0.57c-0.615-0.105-1.028-0.689-0.924-1.305c0.105-0.614,0.681-1.027,1.305-0.924  c2.093,0.357,4.328,0.539,6.646,0.539c8.969,0,14.692-2.678,14.692-4.521v-6.78c0-0.624,0.506-1.13,1.13-1.13s1.13,0.506,1.13,1.13  v6.78C77.37,64.471,68.636,66.848,60.418,66.848z"/><path d="M37.82,54.416c-8.217,0-16.95-2.376-16.95-6.779c0-4.405,8.733-6.782,16.95-6.782s16.95,2.377,16.95,6.782  C54.77,52.04,46.037,54.416,37.82,54.416z M37.82,43.114c-8.967,0-14.69,2.679-14.69,4.522c0,1.843,5.723,4.52,14.69,4.52  s14.69-2.677,14.69-4.52C52.51,45.793,46.787,43.114,37.82,43.114z"/><path d="M37.82,62.325c-8.217,0-16.95-2.375-16.95-6.777v-6.782c0-0.624,0.506-1.13,1.13-1.13s1.13,0.506,1.13,1.13v6.782  c0,1.842,5.723,4.518,14.69,4.518s14.69-2.676,14.69-4.518v-6.782c0-0.624,0.506-1.13,1.13-1.13s1.13,0.506,1.13,1.13v6.782  C54.77,59.95,46.037,62.325,37.82,62.325z"/><path d="M37.82,70.237c-8.217,0-16.95-2.377-16.95-6.781v-6.78c0-0.624,0.506-1.13,1.13-1.13s1.13,0.506,1.13,1.13v6.78  c0,1.844,5.723,4.521,14.69,4.521s14.69-2.678,14.69-4.521v-6.78c0-0.624,0.506-1.13,1.13-1.13s1.13,0.506,1.13,1.13v6.78  C54.77,67.86,46.037,70.237,37.82,70.237z"/><path d="M37.82,78.146c-8.217,0-16.95-2.377-16.95-6.782v-6.779c0-0.624,0.506-1.13,1.13-1.13s1.13,0.506,1.13,1.13v6.779  c0,1.844,5.723,4.522,14.69,4.522s14.69-2.679,14.69-4.522v-6.779c0-0.624,0.506-1.13,1.13-1.13s1.13,0.506,1.13,1.13v6.779  C54.77,75.77,46.037,78.146,37.82,78.146z"/><path d="M42.512,97.771c-0.449,0-0.874-0.27-1.05-0.712c-0.231-0.58,0.052-1.237,0.632-1.468l30.511-12.152  c0.576-0.23,1.236,0.052,1.468,0.632c0.23,0.58-0.052,1.237-0.632,1.468L42.929,97.69C42.792,97.745,42.651,97.771,42.512,97.771z"/><path d="M73.022,85.618c-0.624,0-1.13-0.506-1.13-1.13V74.285c0-0.624,0.506-1.13,1.13-1.13s1.13,0.506,1.13,1.13v10.203  C74.152,85.112,73.646,85.618,73.022,85.618z"/><path d="M42.511,97.771c-0.624,0-1.13-0.506-1.13-1.13V86.299c0-0.624,0.506-1.13,1.13-1.13s1.13,0.506,1.13,1.13v10.342  C43.641,97.265,43.135,97.771,42.511,97.771z"/><path d="M68.043,79.274c-0.289,0-0.578-0.11-0.799-0.331c-0.441-0.441-0.441-1.156,0-1.598l4.97-4.97  c0.441-0.441,1.156-0.441,1.598,0s0.441,1.156,0,1.598l-4.97,4.97C68.621,79.164,68.332,79.274,68.043,79.274z"/><path d="M78,79.258c-0.288,0-0.576-0.109-0.796-0.328l-4.987-4.953c-0.443-0.439-0.445-1.155-0.006-1.598  c0.44-0.443,1.156-0.445,1.598-0.006l4.987,4.953c0.443,0.439,0.445,1.155,0.006,1.598C78.581,79.146,78.29,79.258,78,79.258z"/><path d="M37.532,91.079c-0.289,0-0.578-0.11-0.799-0.331c-0.441-0.441-0.441-1.156,0-1.598l4.969-4.97  c0.441-0.441,1.157-0.441,1.598,0s0.441,1.156,0,1.598l-4.969,4.97C38.111,90.969,37.821,91.079,37.532,91.079z"/><path d="M47.488,91.059c-0.288,0-0.576-0.109-0.796-0.328l-4.987-4.949c-0.443-0.439-0.446-1.154-0.006-1.598  c0.44-0.443,1.155-0.445,1.598-0.006l4.987,4.949c0.443,0.439,0.446,1.154,0.006,1.598C48.069,90.947,47.779,91.059,47.488,91.059z"/><path d="M28.519,16.643c-0.449,0-0.874-0.27-1.05-0.712c-0.231-0.58,0.052-1.237,0.632-1.468L58.611,2.31  c0.576-0.232,1.235,0.051,1.468,0.632c0.23,0.58-0.052,1.237-0.632,1.468L28.937,16.562C28.8,16.617,28.658,16.643,28.519,16.643z"/><path d="M28.519,38.146c-0.624,0-1.13-0.506-1.13-1.13V15.512c0-0.624,0.506-1.13,1.13-1.13s1.13,0.506,1.13,1.13v21.504  C29.648,37.64,29.143,38.146,28.519,38.146z"/><path d="M59.029,14.831c-0.624,0-1.13-0.506-1.13-1.13V3.359c0-0.624,0.506-1.13,1.13-1.13s1.13,0.506,1.13,1.13v10.342  C60.159,14.325,59.653,14.831,59.029,14.831z"/><path d="M28.526,39.256c-0.289,0-0.578-0.11-0.799-0.331c-0.441-0.441-0.441-1.157,0-1.598l4.97-4.972  c0.441-0.441,1.157-0.441,1.598,0c0.441,0.441,0.441,1.157,0,1.598l-4.97,4.972C29.104,39.146,28.815,39.256,28.526,39.256z"/><path d="M28.526,39.256c-0.288,0-0.576-0.109-0.796-0.328l-4.986-4.951c-0.443-0.439-0.445-1.155-0.005-1.598  c0.439-0.442,1.155-0.445,1.598-0.005l4.986,4.951c0.443,0.439,0.445,1.155,0.005,1.598C29.107,39.145,28.816,39.256,28.526,39.256z  "/><path d="M59.039,16.153c-0.289,0-0.578-0.11-0.799-0.331c-0.441-0.441-0.441-1.157,0-1.598l4.969-4.97  c0.441-0.441,1.156-0.441,1.598,0c0.441,0.441,0.441,1.157,0,1.598l-4.969,4.97C59.617,16.042,59.328,16.153,59.039,16.153z"/><path d="M59.039,16.153c-0.288,0-0.576-0.109-0.796-0.328l-4.987-4.951c-0.443-0.439-0.445-1.155-0.006-1.598  s1.156-0.447,1.598-0.006l4.987,4.951c0.443,0.439,0.445,1.155,0.006,1.598C59.62,16.042,59.33,16.153,59.039,16.153z"/><path d="M66.516,29.009c-0.191,0.792-1.135,1.144-2.827,1.059c-1.02-0.049-1.521-0.167-1.516-0.344  c0.009-0.146,0.263-0.206,0.759-0.182c0.138,0.007,0.315,0.028,0.531,0.063c0.216,0.035,0.451,0.056,0.703,0.071  c0.867-0.022,1.366-0.258,1.491-0.71l-5.335-0.268c-0.002,0.041-0.022,0.062-0.062,0.069c-0.17,0.119-0.349,0.239-0.535,0.359  c-0.182,0.118-0.4,0.222-0.646,0.313c-0.247,0.09-0.531,0.16-0.852,0.208c-0.325,0.049-0.708,0.061-1.154,0.038  c-2.025-0.1-3.071-0.535-3.137-1.305l-1.526-0.077c-0.141-0.007-0.207-0.043-0.203-0.105c0.005-0.082,0.072-0.12,0.213-0.112  l1.529,0.076c0.125-0.697,0.938-1.006,2.437-0.932c0.676,0.034,1.01,0.131,1.001,0.294c-0.008,0.161-0.229,0.233-0.658,0.21  c-0.099-0.004-0.195-0.018-0.293-0.04c-0.093-0.021-0.233-0.038-0.425-0.046c-0.834-0.042-1.297,0.139-1.394,0.547l4.352,0.216  c0.088-0.039,0.163-0.084,0.215-0.136c0.188-0.125,0.377-0.247,0.576-0.371c0.197-0.122,0.43-0.228,0.695-0.318  c0.266-0.09,0.575-0.156,0.938-0.204c0.358-0.046,0.786-0.057,1.282-0.032c2.61,0.131,3.891,0.61,3.852,1.438l1.657,0.083  c0.155,0.008,0.229,0.043,0.225,0.108c-0.004,0.081-0.078,0.116-0.232,0.109L66.516,29.009z M54.605,28.416  c0.054,0.477,0.666,0.745,1.834,0.803c0.574,0.03,1.023-0.01,1.348-0.121c0.324-0.109,0.617-0.27,0.881-0.479L54.605,28.416z   M65.668,28.748c-0.039-0.542-0.825-0.849-2.365-0.927c-0.369-0.017-0.687-0.013-0.949,0.015c-0.262,0.027-0.494,0.072-0.693,0.135  c-0.203,0.063-0.381,0.14-0.539,0.23c-0.156,0.09-0.32,0.189-0.492,0.298L65.668,28.748z"/><path d="M43.968,47.654c-0.194,0.792-1.137,1.145-2.83,1.059c-1.018-0.049-1.521-0.166-1.513-0.344  c0.008-0.146,0.26-0.206,0.757-0.18c0.139,0.005,0.316,0.027,0.531,0.062c0.216,0.034,0.451,0.057,0.705,0.071  c0.867-0.022,1.366-0.258,1.489-0.709l-5.333-0.269c-0.001,0.04-0.023,0.062-0.061,0.069c-0.171,0.119-0.351,0.239-0.536,0.359  c-0.183,0.117-0.398,0.225-0.646,0.313c-0.247,0.091-0.533,0.159-0.854,0.209c-0.322,0.048-0.708,0.06-1.154,0.037  c-2.026-0.1-3.072-0.535-3.136-1.305l-1.527-0.076c-0.139-0.007-0.208-0.044-0.204-0.105c0.005-0.081,0.075-0.12,0.213-0.112  l1.529,0.076c0.125-0.697,0.938-1.006,2.438-0.933c0.675,0.034,1.008,0.132,1,0.295c-0.007,0.161-0.228,0.233-0.658,0.212  c-0.1-0.006-0.197-0.02-0.292-0.042c-0.093-0.021-0.236-0.038-0.425-0.046c-0.834-0.042-1.299,0.142-1.395,0.547l4.353,0.217  c0.089-0.039,0.163-0.084,0.216-0.137c0.185-0.125,0.375-0.247,0.574-0.37c0.197-0.122,0.429-0.228,0.694-0.318  c0.268-0.09,0.578-0.156,0.938-0.204c0.36-0.046,0.788-0.057,1.283-0.031c2.611,0.13,3.892,0.608,3.85,1.438l1.662,0.082  c0.151,0.009,0.229,0.044,0.224,0.109c-0.004,0.08-0.083,0.115-0.235,0.108L43.968,47.654z M32.056,47.062  c0.053,0.476,0.665,0.744,1.835,0.803c0.572,0.028,1.022-0.012,1.346-0.121c0.324-0.11,0.62-0.271,0.886-0.48L32.056,47.062z   M43.119,47.396c-0.038-0.544-0.825-0.852-2.366-0.929c-0.367-0.018-0.684-0.013-0.947,0.015c-0.264,0.028-0.495,0.071-0.697,0.135  c-0.199,0.063-0.379,0.141-0.537,0.231c-0.157,0.09-0.319,0.188-0.492,0.297L43.119,47.396z"/></svg>