<svg xmlns:dc="http://purl.org/dc/elements/1.1/" xmlns:cc="http://creativecommons.org/ns#" xmlns:rdf="http://www.w3.org/1999/02/22-rdf-syntax-ns#" xmlns:svg="http://www.w3.org/2000/svg" xmlns="http://www.w3.org/2000/svg" xmlns:sodipodi="http://sodipodi.sourceforge.net/DTD/sodipodi-0.dtd" xmlns:inkscape="http://www.inkscape.org/namespaces/inkscape" viewBox="0 0 53 62.5000025" version="1.1" x="0px" y="0px"><g transform="translate(0,-1002.3622)"><path style="color:white;font-style:normal;font-variant:normal;font-weight:normal;font-stretch:normal;font-size:medium;line-height:normal;font-family:sans-serif;text-indent:0;text-align:start;text-decoration:none;text-decoration-line:none;text-decoration-style:solid;text-decoration-color:#FFFF;letter-spacing:normal;word-spacing:normal;text-transform:none;direction:ltr;block-progression:tb;writing-mode:lr-tb;baseline-shift:baseline;text-anchor:start;white-space:normal;clip-rule:nonzero;display:inline;overflow:visible;visibility:visible;opacity:1;isolation:auto;mix-blend-mode:normal;color-interpolation:sRGB;color-interpolation-filters:linearRGB;solid-color:#000000;solid-opacity:1;fill:#000000;fill-opacity:1;fill-rule:evenodd;stroke:none;stroke-width:1.5;stroke-linecap:butt;stroke-linejoin:miter;stroke-miterlimit:4;stroke-dasharray:none;stroke-dashoffset:0;stroke-opacity:1;color-rendering:auto;image-rendering:auto;shape-rendering:auto;text-rendering:auto;enable-background:accumulate" d="m 26.5,1002.4872 -26.25,19.6875 7.5,0 0,22.5 -3,0 0,3.0625 -4.5,0 0,4.5 52.5,0 0,-4.5 -4.5,0 0,-3.0625 -3,0 0,-22.5 7.5,0 -26.25,-19.6875 z m 0,1.875 21.752,16.3125 -43.502,0 21.75,-16.3125 z m 0,1.7266 -18.373,13.3261 36.7441,0 L 26.5,1006.0888 Z m 0,1.8535 13.75,9.9726 -27.498,0 13.748,-9.9726 z m -17.248,14.2324 3,0 0,22.5 -3,0 0,-22.5 z m 4.5,0 4.5,0 0,7.4707 a 8.9248438,8.9248438 0 0 1 1.5,-2.4024 l 0,-5.0683 3,0 0,2.8281 a 8.9248438,8.9248438 0 0 1 1.5,-0.539 l 0,-2.2891 4.5,0 0,2.3047 a 8.9248438,8.9248438 0 0 1 1.5,0.541 l 0,-2.8457 3,0 0,5.1269 a 8.9248438,8.9248438 0 0 1 1.5,2.4571 l 0,-7.584 4.5,0 0,22.5 -4.5,0 0,-8.2383 a 8.9248438,8.9248438 0 0 1 -1.5,2.4707 l 0,5.7676 -3,0 0,-3.4981 a 8.9248438,8.9248438 0 0 1 -1.5,0.5469 l 0,2.9512 -4.5,0 0,-2.9453 a 8.9248438,8.9248438 0 0 1 -1.5,-0.5332 l 0,3.4785 -3,0 0,-5.7285 a 8.9248438,8.9248438 0 0 1 -1.5,-2.4121 l 0,8.1406 -4.5,0 0,-22.5 z m 27,0 3,0 0,22.5 -3,0 0,-22.5 z m -34.5,24 33,0 7.5,0 0,1.5 -40.5,0 0,-1.5 z m -4.5,3.0625 49.5,0 0,1.5 -49.5,0 0,-1.5 z"/><path style="color:white;font-style:normal;font-variant:normal;font-weight:normal;font-stretch:normal;font-size:medium;line-height:normal;font-family:sans-serif;text-indent:0;text-align:start;text-decoration:none;text-decoration-line:none;text-decoration-style:solid;text-decoration-color:#FFFFF;letter-spacing:normal;word-spacing:normal;text-transform:none;direction:ltr;block-progression:tb;writing-mode:lr-tb;baseline-shift:baseline;text-anchor:start;white-space:normal;clip-rule:nonzero;display:inline;overflow:visible;visibility:visible;opacity:1;isolation:auto;mix-blend-mode:normal;color-interpolation:sRGB;color-interpolation-filters:linearRGB;solid-color:#FFFF;solid-opacity:1;fill:#FFFF;fill-opacity:1;fill-rule:nonzero;stroke:none;stroke-width:1.49999988;stroke-linecap:butt;stroke-linejoin:miter;stroke-miterlimit:4;stroke-dasharray:none;stroke-dashoffset:0;stroke-opacity:1;color-rendering:auto;image-rendering:auto;shape-rendering:auto;text-rendering:auto;enable-background:accumulate" d="m 26.4785,1023.4247 c -5.3344,0 -9.6738,4.3394 -9.6738,9.6738 0,5.3344 4.3395,9.6758 9.6738,9.6758 5.3344,0 9.6758,-4.3414 9.6758,-9.6758 1e-4,-5.3344 -4.3414,-9.6738 -9.6758,-9.6738 z m 0,1.5 c 4.5238,0 8.1758,3.6501 8.1758,8.1738 0,4.5237 -3.6521,8.1758 -8.1758,8.1758 -4.5237,0 -8.1738,-3.6521 -8.1738,-8.1758 0,-4.5237 3.6501,-8.1738 8.1738,-8.1738 z"/><path d="m 26.562,1027.3386 c -0.5976,0 -1.1954,0.1644 -1.6846,0.4347 -0.7066,0.4348 -1.1958,1.1414 -1.4132,2.0652 l 0,0 0,0 c -0.1618,0.7608 0.054,1.4674 0.2182,2.0652 0.054,0.1618 0.1078,0.2183 0.1618,0.3806 l -1.1414,0 0,1.413 1.4674,0 c 0.054,0.1617 0.1079,0.2719 0.1618,0.435 0.2182,0.4891 0.3806,1.0869 0.3261,1.2498 0,0.2183 -0.3804,0.8697 -0.7607,1.3589 -0.3806,0.4891 -0.7611,0.8693 -0.7611,0.8693 l 0.9241,1.087 c 0,0 0.2716,-0.2183 0.5977,-0.3802 0.2717,-0.2183 0.7067,-0.3806 0.7608,-0.3806 0,0 0.4892,0.1618 1.0327,0.3806 0.4892,0.2182 0.9239,0.5433 1.576,0.5433 0.6522,0 1.1415,-0.3261 1.522,-0.5433 0.4346,-0.272 0.7066,-0.4892 0.7066,-0.4892 l -0.8697,-1.1414 c 0,0 -0.2717,0.1618 -0.5977,0.3806 -0.272,0.1618 -0.7066,0.3262 -0.7612,0.3262 0,0 -0.4891,-0.1618 -1.0324,-0.3806 -0.3805,-0.1618 -0.8152,-0.3262 -1.2502,-0.3805 0.1618,-0.3262 0.3261,-0.6522 0.3806,-1.0325 0.054,-0.7066 -0.1618,-1.3044 -0.3806,-1.9023 l 1.6305,0 0,-1.4131 -2.0107,0 c -0.054,-0.1618 -0.1618,-0.4347 -0.272,-0.8152 -0.1617,-0.4891 -0.2183,-1.1413 -0.2183,-1.3043 0.1618,-0.5978 0.3803,-0.924 0.7608,-1.1414 0.3262,-0.2183 0.8153,-0.2717 1.3589,-0.2183 0.5977,0.054 0.9783,0.2716 1.2499,0.5436 0.2717,0.2716 0.4348,0.6521 0.4892,1.3043 l 1.413,-0.1079 c 0,-0.8696 -0.2716,-1.6304 -0.8152,-2.174 -0.5434,-0.5978 -1.3044,-0.9238 -2.1738,-1.0325 l 0,0 c -0.2182,0 -0.3806,0 -0.5981,0 z" style="" fill="#FFFF" fill-opacity="1" fill-rule="nonzero" stroke="none"/></g></svg>