<svg xmlns="http://www.w3.org/2000/svg" xmlns:xlink="http://www.w3.org/1999/xlink" version="1.1" x="0px" y="0px" viewBox="0 0 100 125" enable-background="new 0 0 100 100" xml:space="preserve"><g><path fill="#1A8735" d="M79.185,28.925l5.983-7.689l-7.81-6.076L71.8,22.303c-5.115-3.544-11.106-5.906-17.578-6.691V6.894h-9.895v8.763   c-6.331,0.828-12.192,3.17-17.211,6.646l-5.558-7.144l-7.81,6.076l5.983,7.689c-5.982,6.901-9.607,15.9-9.607,25.73   c0,21.688,17.645,39.333,39.333,39.333s39.333-17.645,39.333-39.333C88.791,44.826,85.167,35.827,79.185,28.925z M49.458,90.323   c-19.668,0-35.669-16-35.669-35.668S29.79,18.986,49.458,18.986s35.668,16.001,35.668,35.669S69.126,90.323,49.458,90.323z"/><path fill="#1A8735" d="M47.626,56.365c0,1.012,0.82,1.832,1.832,1.832s1.832-0.82,1.832-1.832l-1.832-30.172L47.626,56.365z"/></g></svg>