<svg xmlns="http://www.w3.org/2000/svg" xmlns:xlink="http://www.w3.org/1999/xlink" version="1.1" x="0px" y="0px" viewBox="0 0 100 125" enable-background="new 0 0 100 100" xml:space="preserve"><path fill="#1A8735" d="M69.9,17.4c-1.3,0-2.4,1.1-2.4,2.4v5.4c-5.3-0.3-10.2,1.3-10.5,1.4  c-0.7,0.2-1.3,0.8-1.5,1.5s-0.1,1.5,0.3,2.1c0.2,0.4,5.6,8.2,16.3,9.9C61.6,60.4,61.5,79.5,61.5,80.4c0,1.3,1.1,2.4,2.4,2.4  c1.3,0,2.4-1.1,2.4-2.4c0-0.2,0.1-16.6,8.5-34.7c2.6,8.1,8.7,12.3,9,12.5c0.4,0.3,0.9,0.4,1.3,0.4c0.3,0,0.5,0,0.8-0.1  c0.7-0.2,1.3-0.8,1.5-1.5c0.1-0.3,1.7-5.2,1.4-10.5h5.4c1.3,0,2.4-1.1,2.4-2.4c0-9.9-7.1-13.6-12.3-14.4  C83.5,24.5,79.9,17.4,69.9,17.4z M82.1,34.4c0.4,0,8,0.1,9.5,7.3h-3.4c-0.1,0-0.1,0-0.2,0c-0.2-0.6-0.4-1.2-0.7-1.7  c-0.6-1.2-2.1-1.7-3.3-1.1c-1.2,0.6-1.7,2.1-1.1,3.3c1.4,2.9,1.2,6.7,0.7,9.5c-2.3-2.6-5.2-7.1-5.2-13.6V38c0-0.1,0-0.2,0-0.3  s0-0.1,0-0.2c0-0.1,0-0.1-0.1-0.2c0-0.1-0.1-0.1-0.1-0.2c0-0.1-0.1-0.1-0.1-0.2c0-0.1-0.1-0.1-0.1-0.2c0-0.1-0.1-0.1-0.2-0.2  c-0.1-0.1-0.1-0.1-0.2-0.2c-0.1-0.1-0.1-0.1-0.2-0.1c-0.1-0.1-0.1-0.1-0.2-0.2c0,0,0,0-0.1,0c0,0-0.1,0-0.1-0.1  c-0.1,0-0.2-0.1-0.2-0.1c-0.1,0-0.1,0-0.2-0.1c-0.1,0-0.2,0-0.2-0.1c-0.1,0-0.2,0-0.3,0H76c-6.5,0-11.1-2.9-13.6-5.2  c2.8-0.5,6.7-0.7,9.5,0.7c1.2,0.6,2.7,0.1,3.3-1.1c0.6-1.2,0.1-2.7-1.1-3.3c-0.6-0.3-1.1-0.5-1.7-0.7c0-0.1,0-0.1,0-0.2v-3.4  c7,1.4,7.3,8.6,7.3,9.5C79.6,33.3,80.7,34.4,82.1,34.4z M16.9,20.5c-3.7,3.5-5,9.5-3.9,17.8c0.2,1.2,1.2,2.1,2.4,2.1h4  c0.5,5.8,2.7,10.5,2.9,10.8c0.3,0.6,0.9,1.1,1.6,1.3c0.2,0,0.4,0.1,0.6,0.1c0.5,0,1-0.2,1.5-0.5c0.4-0.3,8.5-6.5,10.2-17.2  c13,23.6,13.2,45.3,13.2,45.6c0,1.3,1.1,2.4,2.4,2.4s2.4-1.1,2.4-2.4c0-1.1-0.2-25.6-15.9-51.6c0.1,0,0.1,0,0.2,0  c13.2,0,20.9-10.1,21.3-10.5c0.4-0.6,0.6-1.3,0.4-2c-0.2-0.7-0.6-1.3-1.3-1.6c-0.4-0.2-5.9-2.9-12.5-2.9L47.8,9  c0.3-0.7,0.3-1.5,0-2.2c-0.4-0.7-1-1.2-1.8-1.3c-8.3-1.2-14.3,0.1-17.8,3.9c-2.5,2.6-3.1,5.8-3.2,8.1C22.7,17.4,19.5,18,16.9,20.5z   M27.1,22.2c0.8,0.2,1.6-0.1,2.2-0.7s0.8-1.4,0.7-2.2c0,0-0.7-4.1,1.8-6.8c1.9-2,5.4-3,10.2-2.7l-1.3,2.6c-1.8,0.5-3.7,1.3-5.4,2.4  c-1.1,0.7-1.4,2.2-0.7,3.4c0.7,1.1,2.2,1.4,3.4,0.7c5.2-3.5,11.8-2.3,15.6-1.1c-3.3,3-10.2,7.6-19.5,5.7l0,0c-0.1,0-0.3,0-0.4,0  h-0.1c-0.1,0-0.3,0-0.4,0c0,0,0,0-0.1,0s-0.2,0.1-0.4,0.1h-0.1c-0.1,0.1-0.3,0.1-0.4,0.2l0,0l0,0c-0.1,0.1-0.2,0.2-0.3,0.3l0,0l0,0  c-0.1,0.1-0.2,0.2-0.2,0.3c0,0,0,0.1-0.1,0.1c-0.1,0.1-0.1,0.2-0.2,0.4c0,0,0,0,0,0.1s-0.1,0.2-0.1,0.3c0,0,0,0,0,0.1s0,0.3,0,0.4  v0.1c0,0.1,0,0.2,0,0.4c0,0,0,0,0,0.1l0,0c1.9,9.4-2.7,16.2-5.7,19.5c-1.2-3.8-2.4-10.4,1.1-15.6c0.7-1.1,0.4-2.6-0.7-3.4  c-1.1-0.7-2.6-0.4-3.4,0.7c-1.7,2.6-2.6,5.3-2.9,8h-2c-0.5-5.4,0.4-9.4,2.6-11.5C22.9,21.5,27,22.2,27.1,22.2z M40.4,93.4  c-0.5-1.2,0.1-2.7,1.3-3.2c5.1-2.1,10.5-3.2,16-3.2l0,0c5.5,0,10.9,1.1,16,3.2c1.2,0.5,1.8,1.9,1.3,3.2c-0.4,0.9-1.3,1.5-2.2,1.5  c-0.3,0-0.6-0.1-0.9-0.2c-4.5-1.9-9.2-2.8-14.1-2.8l0,0c-4.9,0-9.7,0.9-14.1,2.8C42.4,95.2,41,94.6,40.4,93.4z"/></svg>