<svg xmlns="http://www.w3.org/2000/svg" xmlns:xlink="http://www.w3.org/1999/xlink" version="1.1" x="0px" y="0px" viewBox="0 0 100 125" enable-background="new 0 0 100 100" xml:space="preserve"><path fill="#FFF" d="M78.4,62.6v9.5c0,1.9-1.5,3.4-3.4,3.4H18.2c-1.9,0-3.4-1.5-3.4-3.4V33.4c0-1.9,1.5-3.4,3.4-3.4H75c1.9,0,3.4,1.5,3.4,3.4v9  H59.7c-2.1,0-3.9,1.8-3.9,3.9v12.4c0,2.1,1.8,3.9,3.9,3.9H78.4z M84.3,47.1v10.8c0,1.8-1.5,3.2-3.2,3.2H60.5c-1.8,0-3.2-1.5-3.2-3.2  V47.1c0-1.8,1.5-3.2,3.2-3.2H81C82.8,43.9,84.3,45.3,84.3,47.1z M70,50.4c0-0.5-0.4-1-1-1h-5c-0.5,0-1,0.4-1,1v4.3c0,0.5,0.4,1,1,1  h5c0.5,0,1-0.4,1-1V50.4z M50.3,21.7c-2.7,0.5-4.4,2.7-4.2,5.2h13.4C58.4,23.1,54.6,20.9,50.3,21.7z M39.3,26.9h3.3  c0.2-0.3,0.3-0.8,0.6-1.4c1.1-3,2.1-6.1,3.3-9.2c0.2-0.5,0.9-1.2,1.3-1.1c3.3,0.5,5.3-1.1,6.9-3.9c2.4,0.8,4.6,1.7,7,2.5  c-0.8,3,0,5.4,2.5,7c1.1,0.7,1.2,1.3,0.8,2.4c-0.5,1.2-0.8,2.4-1.3,3.8h3.3c0-0.1,0.1-0.1,0.1-0.2c1-2.8,2-5.6,2.9-8.4  c0.9-3,0-5-3-6.1c-5.1-1.9-10.3-3.7-15.5-5.4c-3.1-1-5.2,0.2-6.3,3.2c-1.3,3.6-2.6,7.3-3.9,11C40.6,22.9,39.9,24.9,39.3,26.9z   M30.1,26.9C31.5,20.9,32.9,15,34.4,9c-2.8-0.2-4.5,0.9-5,3.4c-0.6,3-0.9,6.1-1.4,9.1c-0.3,1.8-0.5,3.6-0.8,5.4H30.1z M36.2,26.9  c0.2-0.3,0.3-0.8,0.6-1.4c2.1-6.2,4.3-12.3,6.4-18.5c-2.8-1-5.4,0.1-6.1,3c-1.4,5.6-2.7,11.2-4.1,16.9H36.2z M60.8,86.6  c0-3.8-5.1-6.9-11.2-6.9c-6.2,0-11.2,3.1-11.2,7c0,3.8,5.1,6.9,11.2,6.9C55.9,93.6,60.9,90.5,60.8,86.6z M50.3,82.8  C50.3,82.9,50.4,82.9,50.3,82.8c0.2,0.8,0.3,0.8,1.5,0.9c0.4,0,0.7,0.1,1.1,0.2c-0.1,0.3-0.2,0.5-0.4,0.7c-0.7-0.1-1.3-0.2-1.9-0.2  c-0.7,0-1.5,0.1-2.1,0.3c-0.8,0.2-0.8,0.7,0,1c0.7,0.2,1.4,0.4,2.1,0.6c0.6,0.2,1.1,0.3,1.7,0.5c0.8,0.3,1.2,0.7,1,1.3  c-0.2,0.6-0.6,1.1-1.7,1.3c-1,0.1-1.6,0.4-1.2,1.1c-0.5,0-1,0-1.4,0c0,0-0.1,0-0.1,0c-0.1-0.3-0.1-0.7-0.3-0.8  c-0.3-0.2-0.9-0.1-1.4-0.1c-0.4,0-0.8-0.1-1.3-0.2c0.2-0.7,0.2-0.7,1.3-0.6c0.9,0.1,1.8,0.1,2.7,0.1c0.3,0,0.7-0.2,1-0.3  c0.5-0.3,0.5-0.7,0-0.9c-0.6-0.3-1.3-0.4-2-0.6c-0.6-0.2-1.3-0.3-1.9-0.6c-1.5-0.6-1.4-1.8,0.2-2.3c0.1,0,0.2-0.1,0.4-0.1  c1-0.1,1.7-0.4,1.4-1.1C49.5,82.8,49.9,82.8,50.3,82.8z M78,89.7c0-2.2-3.6-3.9-8-3.9c-4.4,0-8,1.8-8,4c0,2.2,3.6,3.9,8,3.9  C74.5,93.6,78,91.8,78,89.7z M70.5,87.5C70.5,87.5,70.5,87.5,70.5,87.5c0.2,0.5,0.2,0.5,1,0.5c0.3,0,0.5,0.1,0.8,0.1  c-0.1,0.1-0.2,0.3-0.3,0.4c-0.5,0-0.9-0.1-1.3-0.1c-0.5,0-1,0-1.5,0.1c-0.6,0.1-0.6,0.4,0,0.6c0.5,0.1,1,0.2,1.5,0.3  c0.4,0.1,0.8,0.2,1.2,0.3c0.6,0.2,0.8,0.4,0.7,0.8c-0.1,0.4-0.4,0.6-1.2,0.7c-0.7,0.1-1.2,0.2-0.9,0.6c-0.4,0-0.7,0-1,0c0,0,0,0,0,0  c-0.1-0.2,0-0.4-0.2-0.5c-0.2-0.1-0.7-0.1-1-0.1c-0.3,0-0.6-0.1-0.9-0.1c0.1-0.4,0.2-0.4,0.9-0.3c0.6,0.1,1.3,0.1,1.9,0  c0.3,0,0.5-0.1,0.7-0.2c0.4-0.2,0.4-0.4,0-0.5c-0.4-0.1-0.9-0.2-1.4-0.4c-0.4-0.1-0.9-0.2-1.3-0.3c-1.1-0.3-1-1,0.1-1.3  c0.1,0,0.2,0,0.3-0.1c0.7-0.1,1.2-0.2,1-0.6C69.9,87.5,70.2,87.5,70.5,87.5z M85.2,84.5c0-2.2-3.6-3.9-8-3.9c-4.4,0-8,1.8-8,4  c0,2.2,3.6,3.9,8,3.9C81.7,88.5,85.3,86.7,85.2,84.5z M77.7,82.3C77.7,82.4,77.7,82.4,77.7,82.3c0.2,0.5,0.2,0.5,1,0.5  c0.3,0,0.5,0.1,0.8,0.1c-0.1,0.1-0.2,0.3-0.3,0.4c-0.5,0-0.9-0.1-1.3-0.1c-0.5,0-1,0-1.5,0.1c-0.6,0.1-0.6,0.4,0,0.6  c0.5,0.1,1,0.2,1.5,0.3c0.4,0.1,0.8,0.2,1.2,0.3c0.6,0.2,0.8,0.4,0.7,0.8c-0.1,0.4-0.4,0.6-1.2,0.7c-0.7,0.1-1.2,0.2-0.9,0.6  c-0.4,0-0.7,0-1,0c0,0,0,0,0,0c-0.1-0.2,0-0.4-0.2-0.5c-0.2-0.1-0.7-0.1-1-0.1c-0.3,0-0.6-0.1-0.9-0.1c0.1-0.4,0.2-0.4,0.9-0.3  c0.6,0.1,1.3,0.1,1.9,0c0.3,0,0.5-0.1,0.7-0.2c0.4-0.2,0.4-0.4,0-0.5c-0.4-0.1-0.9-0.2-1.4-0.4c-0.4-0.1-0.9-0.2-1.3-0.3  c-1.1-0.3-1-1,0.1-1.3c0.1,0,0.2,0,0.3-0.1c0.7-0.1,1.2-0.2,1-0.6C77.1,82.3,77.4,82.3,77.7,82.3z"/></svg>